<?xml version="1.0" encoding="utf-8"?>
<!-- Generator: Adobe Illustrator 21.1.0, SVG Export Plug-In . SVG Version: 6.00 Build 0)  -->
<svg version="1.1" id="Layer_1" xmlns="http://www.w3.org/2000/svg" xmlns:xlink="http://www.w3.org/1999/xlink" x="0px" y="0px"
	 viewBox="0 0 1023 606" style="enable-background:new 0 0 1023 606;" xml:space="preserve">
<style type="text/css">
	.st0{clip-path:url(#SVGID_2_);fill:#B7ACD1;}
	.st1{fill:#86489C;}
	.st2{fill:none;}
	.st3{font-family:'Perpetua-Bold';}
	.st4{font-size:31px;}
</style>
<g id="Area_arrivals">
	<defs>
		<polyline id="SVGID_1_" points="1030.1,624.9 1030.1,-22.8 37,-22.8 37,624.9 		"/>
	</defs>
	<clipPath id="SVGID_2_">
		<use xlink:href="#SVGID_1_"  style="overflow:visible;"/>
	</clipPath>
	<polygon class="st0" points="37,165 127.3,92.1 269.6,128.9 410.4,324 552.7,232.9 693.4,33 835.8,12.2 976.5,88.9 977,542 
		835.8,546.3 693.4,547.9 552.7,555.9 410.4,565.5 269.6,565.5 127.3,563.9 37,562 	"/>
</g>
<path id="SVGID_x5F_3_x5F_" class="st1" d="M408,567l278-14l150-2l140-7v40H37l-1-17H408z"/>
<text><textPath  xlink:href="#SVGID_x5F_3_x5F_" startOffset="99.4792%">
</textPath>
</text>
<path id="SVGID_x5F_4_x5F_" class="st2" d="M37,575l1,17h939v-40l-140,7l-150,2l-278,14H37z"/>
<text><textPath  xlink:href="#SVGID_x5F_4_x5F_" startOffset="5266.6016%">
<tspan  class="st3" style="font-size:23px;">were granted affirmative asylum during the Obama administration.</tspan></textPath>
</text>
<path id="SVGID_x5F_5_x5F_" class="st2" d="M37,568h372l278-14l150-2l140-7v40H38L37,568z"/>
<text><textPath  xlink:href="#SVGID_x5F_5_x5F_" startOffset="12600.0752%">
<tspan  class="st3" style="font-size:23px;">Only 6 percent of all refugee arrivals from the 7 travel banned countries</tspan></textPath>
</text>
<text transform="matrix(0.9684 0 0 1 11 362.376)" class="st3 st4">2008</text>
<text transform="matrix(1 0 0 1 947 361)" class="st3 st4">2015</text>
</svg>
