<?xml version="1.0" encoding="utf-8"?>
<!-- Generator: Adobe Illustrator 16.0.4, SVG Export Plug-In . SVG Version: 6.00 Build 0)  -->
<!DOCTYPE svg PUBLIC "-//W3C//DTD SVG 1.1//EN" "http://www.w3.org/Graphics/SVG/1.1/DTD/svg11.dtd">
<svg version="1.1" id="Layer_1" xmlns="http://www.w3.org/2000/svg" xmlns:xlink="http://www.w3.org/1999/xlink" x="0px" y="0px"
	 width="612px" height="316px" viewBox="0 0 612 316" enable-background="new 0 0 612 316" xml:space="preserve">
<path fill="#95CDC4" d="M306.721,160.666l-128.692-48.268l-5.531,17.778l-2.046,15.417l-0.841,14.621l0.719,12.268l1.442,10.104
	l1.925,9.14l2.498,8.811l2.796,7.757l3.608,8.571l4.42,8.389l6.586,10.372l6.134,8.209l7.292,7.971l7.592,7.635l8.749,7.15
	l11.677,7.75l6.906,4.223l10.464,4.961l12.719,4.602l9.471,2.615l19.055,3.017l9.901,0.595l8.569-0.364l7.856-0.483l11.146-1.779
	l12.125-2.971l13.434-4.688l10.915-5.231l8.99-4.909l9.053-6.297l8.627-6.691l9.411-9.073l7.397-8.66c0,0,3.794-4.759,7.037-9.562
	c3.221-4.774,5.809-9.074,6.854-11.096c2.092-4.044,10.013-23.904,10.013-23.904l3.157-12.538l1.896-10.914l0.63-7.757l0.181-15.065
	l-1.443-14.883l-1.623-8.75l-2.075-7.397l-2.797-9.201l-3.97-9.652l-5.501-10.824l-6.134-9.562l-3.699-5.322l-4.599-5.773
	l-7.76-8.479l-8.117-7.488l-10.374-8.028l-11.095-6.946l-9.02-4.51l-9.293-3.969l-8.568-2.887l-7.667-2.074l-10.283-2.165
	l-10.1-1.62l-4.719-0.452l-5.023-0.149L306.721,160.666z"/>
<polygon fill="#95CDC4" points="231.445,44.937 239.954,39.795 246.419,36.367 259.408,30.594 270.413,27.076 280.877,24.817 
	290.438,23.375 300.722,22.472 305.232,22.111 305.232,153.181 "/>
<polyline fill="#D0D2D3" points="196.355,78.763 201.948,71.728 207.541,65.232 214.035,59.008 218.545,54.679 225.222,49.447 
	229.19,46.65 300.631,151.855 196.355,78.763 "/>
<polygon fill="#95CDC4" points="188.688,91.121 194.829,81.171 283.673,143.44 "/>
<polygon fill="#95CDC4" points="183.739,100.6 187.349,93.745 274.833,141.997 "/>
<polygon fill="#95CDC4" points="182.458,103.429 180.292,108.711 264.188,140.373 "/>
<rect x="403.757" y="295.255" fill="none" width="226.062" height="9.621"/>
<text transform="matrix(1 0 0 1 403.7568 303.0127)" fill="#231F20" font-family="'CoolveticaRg-Regular'" font-size="11.5462">*Violations issued April 2014-2015</text>
<rect x="-35.118" y="-8.312" fill="none" width="207.831" height="117.386"/>
<rect x="297.391" y="183.16" fill="none" width="115.512" height="27.422"/>
<text transform="matrix(1 0 0 1 297.3906 197.708)" fill="#231F20" font-family="'CoolveticaRg-Regular'" font-size="21.6491">Pennsylvania</text>
<rect x="6.141" y="112.28" fill="none" width="94.295" height="19.242"/>
<text transform="matrix(1 0 0 1 6.1406 123.9185)" fill="#231F20" font-family="'CoolveticaRg-Regular'" font-size="17.3193">Maryland</text>
<rect x="142.403" y="53.75" fill="none" width="332.914" height="54.844"/>
<text transform="matrix(1 0 0 1 142.4033 68.2979)" fill="#231F20" font-family="'CoolveticaRg-Regular'" font-size="21.6491">All others</text>
<rect x="6.141" y="142.492" fill="none" width="103.917" height="32.203"/>
<text transform="matrix(1 0 0 1 6.1406 154.1299)" fill="#231F20" font-family="'CoolveticaRg-Regular'" font-size="17.3193">New York</text>
<rect x="6.141" y="82.122" fill="none" width="78.051" height="23.247"/>
<text transform="matrix(1 0 0 1 6.1406 93.7603)" fill="#231F20" font-family="'CoolveticaRg-Regular'" font-size="17.3193">Delaware</text>
<rect x="188.689" y="18.659" fill="none" width="332.915" height="54.844"/>
<text transform="matrix(1 0 0 1 188.6885 33.2061)" fill="#231F20" font-family="'CoolveticaRg-Regular'" font-size="21.6491">New Jersey</text>
<g>
	
		<line fill="#231F20" stroke="#231F20" stroke-width="0.25" stroke-miterlimit="10" x1="191.963" y1="85.817" x2="117.867" y2="73.502"/>
	
		<line fill="none" stroke="#231F20" stroke-width="0.25" stroke-miterlimit="10" x1="117.867" y1="73.502" x2="72.045" y2="85.817"/>
</g>
<g>
	
		<line fill="#231F20" stroke="#231F20" stroke-width="0.25" stroke-miterlimit="10" x1="185.625" y1="97.017" x2="118.547" y2="104.501"/>
	
		<line fill="none" stroke="#231F20" stroke-width="0.25" stroke-miterlimit="10" x1="118.547" y1="104.501" x2="73.246" y2="115.928"/>
</g>
<g>
	
		<line fill="#231F20" stroke="#231F20" stroke-width="0.25" stroke-miterlimit="10" x1="181.436" y1="105.923" x2="131.819" y2="137.457"/>
	
		<line fill="none" stroke="#231F20" stroke-width="0.25" stroke-miterlimit="10" x1="131.819" y1="137.457" x2="75.291" y2="148.882"/>
</g>
</svg>
