<?xml version="1.0" encoding="utf-8"?>
<!-- Generator: Adobe Illustrator 16.0.4, SVG Export Plug-In . SVG Version: 6.00 Build 0)  -->
<!DOCTYPE svg PUBLIC "-//W3C//DTD SVG 1.1//EN" "http://www.w3.org/Graphics/SVG/1.1/DTD/svg11.dtd">
<svg version="1.1" id="Layer_1" xmlns="http://www.w3.org/2000/svg" xmlns:xlink="http://www.w3.org/1999/xlink" x="0px" y="0px"
	 width="612px" height="421px" viewBox="0 0 612 421" enable-background="new 0 0 612 421" xml:space="preserve">
<line fill="none" stroke="#A6A8AB" stroke-width="0.5" stroke-miterlimit="10" x1="321.333" y1="400.93" x2="321.333" y2="11.333"/>
<line fill="none" stroke="#A6A8AB" stroke-width="0.5" stroke-miterlimit="10" x1="378" y1="400.93" x2="378" y2="12.983"/>
<line fill="none" stroke="#A6A8AB" stroke-width="0.5" stroke-miterlimit="10" x1="435.333" y1="400.654" x2="435.333" y2="12.708"/>
<line fill="none" stroke="#A6A8AB" stroke-width="0.5" stroke-miterlimit="10" x1="492.395" y1="400.654" x2="492.395" y2="14.048"/>
<g>
	<polygon fill="#D0D2D3" points="452.5,11.227 452.5,24.197 251.01,24.322 251.01,11.333 	"/>
	<rect x="251.01" y="30.811" fill="#94CBC2" width="49.763" height="12.989"/>
	<rect x="251.01" y="69.288" fill="#94CBC2" width="1.913" height="12.988"/>
	<rect x="251.01" y="50.053" fill="#94CBC2" width="172.26" height="12.99"/>
	<rect x="251.01" y="88.708" fill="#94CBC2" width="5.741" height="12.989"/>
	<polygon fill="#D0D2D3" points="251.01,107.868 527,107.743 527,120.732 251.01,120.856 	"/>
	<rect x="251.01" y="129.417" fill="#94CBC2" width="63.163" height="12.989"/>
	<rect x="251.01" y="148.745" fill="#94CBC2" width="168.434" height="12.989"/>
	<rect x="251.01" y="168.058" fill="#94CBC2" width="28.709" height="13.363"/>
	<rect x="251.01" y="187.207" fill="#94CBC2" width="1.913" height="13.363"/>
	<rect x="251.01" y="206.957" fill="#94CBC2" width="13.396" height="13.476"/>
	<rect x="251.01" y="226.484" fill="#94CBC2" width="3.827" height="13.66"/>
	<polygon fill="#D0D2D3" points="251.01,245.427 481.829,245.174 481.829,257.875 251.01,257.875 	"/>
	<rect x="251.01" y="264.756" fill="#94CBC2" width="1.913" height="13.659"/>
	<rect x="251.01" y="284.082" fill="#94CBC2" width="55.506" height="13.66"/>
	<rect x="251.01" y="303.23" fill="#94CBC2" width="109.099" height="13.66"/>
	<rect x="251.01" y="322.766" fill="#94CBC2" width="11.482" height="13.632"/>
	<rect x="251.01" y="341.945" fill="#94CBC2" width="68.904" height="13.631"/>
	<rect x="251.01" y="361.307" fill="#94CBC2" width="7.655" height="13.597"/>
	<rect x="251.01" y="380.779" fill="#94CBC2" width="68.904" height="13.598"/>
</g>
<rect x="146.197" y="13.316" fill="none" width="108.715" height="20.034"/>
<text transform="matrix(1 0 0 1 146.1973 21.3799)" fill="#231F20" font-family="'CoolveticaRg-Regular'" font-size="12">Stopping Prohibited</text>
<rect x="76.923" y="31.668" fill="none" width="173" height="32.77"/>
<text transform="matrix(1 0 0 1 76.9229 39.7324)" fill="#231F20" font-family="'CoolveticaRg-Regular'" font-size="12">Parked in Snow Emergency Route</text>
<rect x="158.317" y="51.804" fill="none" width="89.692" height="17.483"/>
<text transform="matrix(1 0 0 1 158.3174 59.8682)" fill="#231F20" font-family="'CoolveticaRg-Regular'" font-size="12">Blocking Sidewalk</text>
<rect x="137.136" y="70.662" fill="none" width="272.911" height="35.607"/>
<text transform="matrix(1 0 0 1 137.1348 78.7261)" fill="#231F20" font-family="'CoolveticaRg-Regular'" font-size="12">Parked in School Zone</text>
<rect x="155.136" y="109.724" fill="none" width="272.911" height="35.607"/>
<text transform="matrix(1 0 0 1 155.1348 117.7876)" fill="#231F20" font-family="'CoolveticaRg-Regular'" font-size="12">Parking Prohibited</text>
<rect x="134.455" y="131.469" fill="none" width="124.524" height="11.897"/>
<text transform="matrix(1 0 0 1 134.4551 139.5327)" fill="#231F20" font-family="'CoolveticaRg-Regular'" font-size="12">Over Space Time Limit</text>
<rect x="177.316" y="150.254" fill="none" width="73.762" height="11.48"/>
<text transform="matrix(1 0 0 1 177.3164 158.3184)" fill="#231F20" font-family="'CoolveticaRg-Regular'" font-size="12">Expired Meter</text>
<rect x="95.167" y="228.624" fill="none" width="167.239" height="26.404"/>
<text transform="matrix(1 0 0 1 95.167 236.6875)" fill="#231F20" font-family="'CoolveticaRg-Regular'" font-size="12">Improperly Parked on One-way</text>
<rect x="131.908" y="170.403" fill="none" width="122.102" height="12.018"/>
<text transform="matrix(1 0 0 1 131.9082 178.4668)" fill="#231F20" font-family="'CoolveticaRg-Regular'" font-size="12">Parked in Loading Zone</text>
<rect x="140.614" y="188.667" fill="none" width="114.689" height="17.804"/>
<text transform="matrix(1 0 0 1 140.6143 196.7314)" fill="#231F20" font-family="'CoolveticaRg-Regular'" font-size="12">Blocking Intersection</text>
<rect x="95.167" y="207.681" fill="none" width="153.843" height="18.804"/>
<text transform="matrix(1 0 0 1 95.167 215.7446)" fill="#231F20" font-family="'CoolveticaRg-Regular'" font-size="12">Improperly Parked on Two-way</text>
<rect x="153.185" y="246.952" fill="none" width="110.013" height="17.804"/>
<text transform="matrix(1 0 0 1 153.1846 255.0156)" fill="#231F20" font-family="'CoolveticaRg-Regular'" font-size="12">Handicap Violation</text>
<rect x="166.104" y="267.278" fill="none" width="84.819" height="11.137"/>
<text transform="matrix(1 0 0 1 166.1035 275.3418)" fill="#231F20" font-family="'CoolveticaRg-Regular'" font-size="12">Disobeying Sign</text>
<rect x="151.185" y="286.427" fill="none" width="272.911" height="35.607"/>
<text transform="matrix(1 0 0 1 151.1836 294.4902)" fill="#231F20" font-family="'CoolveticaRg-Regular'" font-size="12">Blocking Crosswalk</text>
<rect x="161.007" y="303.962" fill="none" width="88.634" height="17.072"/>
<text transform="matrix(1 0 0 1 161.0068 312.0254)" fill="#231F20" font-family="'CoolveticaRg-Regular'" font-size="12">Corner Clearance</text>
<rect x="165.317" y="343.503" fill="none" width="85.692" height="17.804"/>
<text transform="matrix(1 0 0 1 165.3174 351.5664)" fill="#231F20" font-family="'CoolveticaRg-Regular'" font-size="12">Blocking Service</text>
<rect x="80.741" y="324.142" fill="none" width="272.911" height="35.607"/>
<text transform="matrix(1 0 0 1 80.7402 332.2051)" fill="#231F20" font-family="'CoolveticaRg-Regular'" font-size="12">Reserved for Commercial Vehicles</text>
<rect x="157.733" y="381.476" fill="none" width="128.926" height="17.804"/>
<text transform="matrix(1 0 0 1 157.7334 389.5391)" fill="#231F20" font-family="'CoolveticaRg-Regular'" font-size="12">Blocking Driveway</text>
<rect x="160.545" y="362.976" fill="none" width="89.465" height="17.804"/>
<text transform="matrix(1 0 0 1 160.5449 371.0391)" fill="#231F20" font-family="'CoolveticaRg-Regular'" font-size="12">Blocking Highway</text>
<rect x="111.555" y="90.064" fill="none" width="136.455" height="17.804"/>
<text transform="matrix(1 0 0 1 111.5547 98.1279)" fill="#231F20" font-family="'CoolveticaRg-Regular'" font-size="12">Parked on Private Property</text>
<rect x="247.01" y="406" fill="none" width="41.582" height="15"/>
<text transform="matrix(1 0 0 1 247.0098 414.0645)" font-family="'CoolveticaRg-Regular'" font-size="12">$0</text>
<rect x="300.439" y="406" fill="none" width="64.426" height="28.125"/>
<text transform="matrix(1 0 0 1 300.4395 414.0645)" font-family="'CoolveticaRg-Regular'" font-size="12">$500,000</text>
<rect x="369.684" y="406" fill="none" width="41.582" height="15"/>
<text transform="matrix(1 0 0 1 369.6836 414.0645)" font-family="'CoolveticaRg-Regular'" font-size="12">$1m</text>
<rect x="423.893" y="406" fill="none" width="41.582" height="15"/>
<text transform="matrix(1 0 0 1 423.8926 414.0645)" font-family="'CoolveticaRg-Regular'" font-size="12">$1.5m</text>
<rect x="481.829" y="406" fill="none" width="41.582" height="15"/>
<text transform="matrix(1 0 0 1 481.8291 414.0645)" font-family="'CoolveticaRg-Regular'" font-size="12">$2m</text>
<line fill="none" stroke="#A6A8AB" stroke-width="0.5" stroke-miterlimit="10" x1="550.062" y1="400.392" x2="550.062" y2="13.786"/>
<rect x="536.621" y="406" fill="none" width="41.582" height="15"/>
<text transform="matrix(1 0 0 1 536.6211 414.0645)" font-family="'CoolveticaRg-Regular'" font-size="12">$2.5m</text>
</svg>
