<?xml version="1.0" encoding="utf-8"?>
<!-- Generator: Adobe Illustrator 16.0.4, SVG Export Plug-In . SVG Version: 6.00 Build 0)  -->
<!DOCTYPE svg PUBLIC "-//W3C//DTD SVG 1.1//EN" "http://www.w3.org/Graphics/SVG/1.1/DTD/svg11.dtd">
<svg version="1.1" id="Layer_1" xmlns="http://www.w3.org/2000/svg" xmlns:xlink="http://www.w3.org/1999/xlink" x="0px" y="0px"
	 width="612px" height="588px" viewBox="0 0 612 588" enable-background="new 0 0 612 588" xml:space="preserve">
<line fill="none" stroke="#A6A8AB" stroke-width="0.5" stroke-miterlimit="10" x1="281.659" y1="531.93" x2="281.659" y2="97.179"/>
<line fill="none" stroke="#A6A8AB" stroke-width="0.5" stroke-miterlimit="10" x1="344.894" y1="531.93" x2="344.894" y2="99.021"/>
<line fill="none" stroke="#A6A8AB" stroke-width="0.5" stroke-miterlimit="10" x1="408.871" y1="531.622" x2="408.871" y2="98.713"/>
<line fill="none" stroke="#A6A8AB" stroke-width="0.5" stroke-miterlimit="10" x1="472.546" y1="531.622" x2="472.546" y2="100.21"/>
<g>
	<g>
		<polygon fill="#D0D2D3" points="482.98,97.207 482.98,111.674 203.186,111.674 203.186,97.179 		"/>
		<rect x="203.186" y="118.915" fill="#94CBC2" width="55.53" height="14.495"/>
		<rect x="203.186" y="161.851" fill="#94CBC2" width="2.135" height="14.494"/>
		<rect x="203.186" y="140.388" fill="#94CBC2" width="192.225" height="14.495"/>
		<rect x="203.186" y="183.523" fill="#94CBC2" width="6.407" height="14.494"/>
		<rect x="203.186" y="204.902" fill="#D0D2D3" width="386.587" height="14.494"/>
		<rect x="203.186" y="228.949" fill="#94CBC2" width="70.483" height="14.495"/>
		<rect x="203.186" y="250.518" fill="#94CBC2" width="187.955" height="14.495"/>
		<rect x="203.186" y="272.069" fill="#94CBC2" width="32.036" height="14.912"/>
		<rect x="203.186" y="293.437" fill="#94CBC2" width="2.135" height="14.912"/>
		<rect x="203.186" y="315.476" fill="#94CBC2" width="14.949" height="15.037"/>
		<rect x="203.186" y="337.267" fill="#94CBC2" width="4.271" height="15.243"/>
		<rect x="203.186" y="358.404" fill="#D0D2D3" width="324.647" height="15.244"/>
		<rect x="203.186" y="379.974" fill="#94CBC2" width="2.135" height="15.242"/>
		<rect x="203.186" y="401.539" fill="#94CBC2" width="61.939" height="15.244"/>
		<rect x="203.186" y="422.907" fill="#94CBC2" width="121.743" height="15.243"/>
		<rect x="203.186" y="444.706" fill="#94CBC2" width="12.813" height="15.212"/>
		<rect x="203.186" y="466.109" fill="#94CBC2" width="76.891" height="15.21"/>
		<rect x="203.186" y="487.714" fill="#94CBC2" width="8.543" height="15.173"/>
		<rect x="203.186" y="509.443" fill="#94CBC2" width="76.891" height="15.174"/>
	</g>
	<rect x="86.227" y="99.392" fill="none" width="121.314" height="22.356"/>
	<text transform="matrix(1 0 0 1 86.2266 108.3901)" fill="#231F20" font-family="'CoolveticaRg-Regular'" font-size="13.3908">Stopping Prohibited</text>
	<rect x="8.923" y="119.871" fill="none" width="193.051" height="36.568"/>
	<text transform="matrix(1 0 0 1 8.9229 128.8696)" fill="#231F20" font-family="'CoolveticaRg-Regular'" font-size="13.3908">Parked in Snow Emergency Route</text>
	<rect x="99.751" y="142.341" fill="none" width="100.087" height="19.51"/>
	<text transform="matrix(1 0 0 1 99.751 151.3389)" fill="#231F20" font-family="'CoolveticaRg-Regular'" font-size="13.3908">Blocking Sidewalk</text>
	<rect x="76.114" y="163.384" fill="none" width="304.541" height="39.734"/>
	<text transform="matrix(1 0 0 1 76.1143 172.3823)" fill="#231F20" font-family="'CoolveticaRg-Regular'" font-size="13.3908">Parked in School Zone</text>
	<rect x="96.2" y="206.973" fill="none" width="304.541" height="39.734"/>
	<text transform="matrix(1 0 0 1 96.2002 215.9712)" fill="#231F20" font-family="'CoolveticaRg-Regular'" font-size="13.3908">Parking Prohibited</text>
	<rect x="73.123" y="231.238" fill="none" width="138.956" height="13.275"/>
	<text transform="matrix(1 0 0 1 73.123 240.2363)" fill="#231F20" font-family="'CoolveticaRg-Regular'" font-size="13.3908">Over Space Time Limit</text>
	<rect x="120.952" y="252.201" fill="none" width="82.311" height="12.811"/>
	<text transform="matrix(1 0 0 1 120.9521 261.1992)" fill="#231F20" font-family="'CoolveticaRg-Regular'" font-size="13.3908">Expired Meter</text>
	<rect x="29.281" y="339.653" fill="none" width="186.622" height="29.464"/>
	<text transform="matrix(1 0 0 1 29.2812 348.6514)" fill="#231F20" font-family="'CoolveticaRg-Regular'" font-size="13.3908">Improperly Parked on One-way</text>
	<rect x="70.281" y="274.685" fill="none" width="136.253" height="13.411"/>
	<text transform="matrix(1 0 0 1 70.2812 283.6826)" fill="#231F20" font-family="'CoolveticaRg-Regular'" font-size="13.3908">Parked in Loading Zone</text>
	<rect x="79.996" y="295.066" fill="none" width="127.981" height="19.867"/>
	<text transform="matrix(1 0 0 1 79.9961 304.064)" fill="#231F20" font-family="'CoolveticaRg-Regular'" font-size="13.3908">Blocking Intersection</text>
	<rect x="29.281" y="316.283" fill="none" width="171.673" height="20.982"/>
	<text transform="matrix(1 0 0 1 29.2812 325.2808)" fill="#231F20" font-family="'CoolveticaRg-Regular'" font-size="13.3908">Improperly Parked on Two-way</text>
	<rect x="94.023" y="360.105" fill="none" width="122.763" height="19.867"/>
	<text transform="matrix(1 0 0 1 94.0234 369.1035)" fill="#231F20" font-family="'CoolveticaRg-Regular'" font-size="13.3908">Handicap Violation</text>
	<rect x="108.439" y="382.787" fill="none" width="94.649" height="12.428"/>
	<text transform="matrix(1 0 0 1 108.4395 391.7861)" fill="#231F20" font-family="'CoolveticaRg-Regular'" font-size="13.3908">Disobeying Sign</text>
	<rect x="91.791" y="404.155" fill="none" width="304.541" height="39.734"/>
	<text transform="matrix(1 0 0 1 91.792 413.1543)" fill="#231F20" font-family="'CoolveticaRg-Regular'" font-size="13.3908">Blocking Crosswalk</text>
	<rect x="102.752" y="423.723" fill="none" width="98.906" height="19.051"/>
	<text transform="matrix(1 0 0 1 102.752 432.7217)" fill="#231F20" font-family="'CoolveticaRg-Regular'" font-size="13.3908">Corner Clearance</text>
	<rect x="107.562" y="467.847" fill="none" width="95.623" height="19.867"/>
	<text transform="matrix(1 0 0 1 107.5625 476.8447)" fill="#231F20" font-family="'CoolveticaRg-Regular'" font-size="13.3908">Blocking Service</text>
	<rect x="13.184" y="446.241" fill="none" width="304.541" height="39.734"/>
	<text transform="matrix(1 0 0 1 13.1836 455.2402)" fill="#231F20" font-family="'CoolveticaRg-Regular'" font-size="13.3908">Reserved for Commercial Vehicles</text>
	<rect x="99.1" y="510.22" fill="none" width="143.867" height="19.867"/>
	<text transform="matrix(1 0 0 1 99.0996 519.2188)" fill="#231F20" font-family="'CoolveticaRg-Regular'" font-size="13.3908">Blocking Driveway</text>
	<rect x="102.236" y="489.576" fill="none" width="99.834" height="19.867"/>
	<text transform="matrix(1 0 0 1 102.2363 498.5742)" fill="#231F20" font-family="'CoolveticaRg-Regular'" font-size="13.3908">Blocking Highway</text>
	<rect x="47.568" y="185.035" fill="none" width="152.27" height="19.866"/>
	<text transform="matrix(1 0 0 1 47.5684 194.0327)" fill="#231F20" font-family="'CoolveticaRg-Regular'" font-size="13.3908">Parked on Private Property</text>
</g>
<rect x="198.723" y="537.587" fill="none" width="46.401" height="16.738"/>
<text transform="matrix(1 0 0 1 198.7227 546.585)" font-family="'CoolveticaRg-Regular'" font-size="13.3908">$0</text>
<rect x="258.345" y="537.587" fill="none" width="71.893" height="31.385"/>
<text transform="matrix(1 0 0 1 258.3447 546.585)" font-family="'CoolveticaRg-Regular'" font-size="13.3908">$500,000</text>
<rect x="335.613" y="537.587" fill="none" width="46.401" height="16.738"/>
<text transform="matrix(1 0 0 1 335.6143 546.585)" font-family="'CoolveticaRg-Regular'" font-size="13.3908">$1m</text>
<rect x="396.105" y="537.587" fill="none" width="46.401" height="16.738"/>
<text transform="matrix(1 0 0 1 396.1055 546.585)" font-family="'CoolveticaRg-Regular'" font-size="13.3908">$1.5m</text>
<rect x="460.757" y="537.587" fill="none" width="46.401" height="16.738"/>
<text transform="matrix(1 0 0 1 460.7568 546.585)" font-family="'CoolveticaRg-Regular'" font-size="13.3908">$2m</text>
<line fill="none" stroke="#A6A8AB" stroke-width="0.5" stroke-miterlimit="10" x1="536.896" y1="531.329" x2="536.896" y2="97.179"/>
<rect x="521.898" y="537.587" fill="none" width="46.401" height="16.738"/>
<text transform="matrix(1 0 0 1 521.8994 546.585)" font-family="'CoolveticaRg-Regular'" font-size="13.3908">$2.5m</text>
<rect x="8.923" y="11.999" fill="none" width="580.85" height="73.649"/>
<text transform="matrix(1 0 0 1 78.4531 38.4512)"><tspan x="0" y="0" font-family="'Couture-Bold'" font-size="37.0478">Violation profits by  </tspan><tspan x="97.73" y="44.458" font-family="'Couture-Bold'" font-size="37.0478">ticket type</tspan></text>
<rect x="411.392" y="570.299" fill="none" width="252.261" height="10.736"/>
<text transform="matrix(1 0 0 1 411.3906 578.9561)" fill="#231F20" font-family="'CoolveticaRg-Regular'" font-size="12.8843">*Violations issued April 2014-2015</text>
</svg>
